<svg width="149" height="44" viewBox="0 0 149 44" fill="none" xmlns="http://www.w3.org/2000/svg">
<path d="M5.021 0V20.3466H0.643555V0H5.021Z" fill="black"/>
<path d="M21.8659 14.6205H22.3843V0H26.7618V20.3466H20.4548L11.6135 5.75517H11.1239V20.3466H6.74647V0H12.6503V0.0290659H13.0534L21.8659 14.6205Z" fill="black"/>
<path d="M28.3457 0V20.3466H32.7232V12.1789H39.0819V8.19676H32.7232V4.01118H47.1326V20.3466H51.51V0H28.3457Z" fill="black"/>
<path d="M68.8734 14.6205H68.355L59.5425 0.0290659H59.1393V0H53.2355V20.3466H57.6129V5.75517H58.1025L66.9438 20.3466H73.2508V0H68.8734V14.6205Z" fill="black"/>
<path d="M79.4934 4.04024V20.3466H75.116V0H96.7772L106.516 10.4219V0H110.894V20.3466H106.516V17.1339L94.2901 4.04024H91.0587V20.3466H86.6813V4.04024H79.4934Z" fill="black"/>
<path d="M25.4014 22.1978H20.9489V31.8516H25.4014C29.1155 31.8516 30.4803 29.7714 30.4803 27.0247C30.4803 24.2664 29.1155 22.1978 25.4014 22.1978ZM25.4014 29.668H23.4772L23.4884 24.3699H25.4014C27.0235 24.3699 27.952 25.2663 27.952 27.0247C27.952 28.7716 27.0235 29.668 25.4014 29.668Z" fill="black"/>
<path d="M32.3403 31.8516H34.8686V22.1978H32.3403V31.8516Z" fill="black"/>
<path d="M46.7254 26.6684H41.7695V28.2544H44.2754C43.9622 29.6105 42.6757 29.9323 41.9037 29.9323C40.3599 29.9323 39.1741 28.7486 39.1741 27.0247C39.1741 25.3008 40.3376 24.117 41.9709 24.117C43.0225 24.117 43.8056 24.6342 44.1076 25.3812H46.6135C46.1549 22.8988 44.0293 21.876 41.9261 21.876C38.7714 21.876 36.6682 23.9676 36.6682 27.0247C36.6682 30.0702 38.8609 32.1734 41.7136 32.1734C43.3804 32.1734 44.5551 31.4723 45.204 30.4955L45.2375 31.8516H46.7254V26.6684Z" fill="black"/>
<path d="M48.7518 31.8516H51.2801V22.1978H48.7518V31.8516Z" fill="black"/>
<path d="M62.667 22.1978H53.1915V24.3584H56.6707V31.8516H59.1878V24.3584H62.667V22.1978Z" fill="black"/>
<path d="M70.4382 31.8516H73.0448L69.465 22.1978H65.9298L62.35 31.8516H64.9566L65.4824 30.3461H69.9124L70.4382 31.8516ZM66.1536 28.4038L67.4736 24.6342H67.9323L69.2412 28.4038H66.1536Z" fill="black"/>
<path d="M74.6801 31.8516H82.4887V29.6795H77.2083V22.1978H74.6801V31.8516Z" fill="black"/>
<path d="M65.5543 43.6782H68.1609L64.581 34.0244H61.0459L57.466 43.6782H60.0726L60.5984 42.1727H65.0285L65.5543 43.6782ZM61.2696 40.2305L62.5897 36.4609H63.0484L64.3573 40.2305H61.2696Z" fill="black"/>
<path d="M78.8072 38.4951H73.8513V40.0811H76.3572C76.0439 41.4372 74.7574 41.759 73.9855 41.759C72.4417 41.759 71.2559 40.5752 71.2559 38.8513C71.2559 37.1274 72.4193 35.9437 74.0526 35.9437C75.1042 35.9437 75.8873 36.4609 76.1894 37.2079H78.6953C78.2366 34.7255 76.1111 33.7026 74.0079 33.7026C70.8531 33.7026 68.75 35.7943 68.75 38.8513C68.75 41.8969 70.9426 44 73.7953 44C75.4622 44 76.6369 43.299 77.2857 42.3221L77.3193 43.6782H78.8072V38.4951Z" fill="black"/>
<path d="M80.8336 43.6782H88.9331V41.5751H83.3619V39.7478H88.7317V37.9434H83.3619V36.1276H88.9331V34.0244H80.8336V43.6782Z" fill="black"/>
<path d="M90.901 43.6782H93.3621V37.6101H93.597L97.602 43.6782H100.455V34.0244H97.9936V40.0925H97.7699L93.8208 34.0244H90.901V43.6782Z" fill="black"/>
<path d="M107.447 44C109.606 44 111.776 43.0232 112.19 40.0236H109.785C109.427 41.2188 108.565 41.759 107.447 41.759C105.925 41.759 104.762 40.5752 104.762 38.8513C104.762 37.1274 105.925 35.9437 107.447 35.9437C108.565 35.9437 109.427 36.4724 109.785 37.6561H112.19C111.776 34.668 109.594 33.7026 107.447 33.7026C104.37 33.7026 102.256 35.7943 102.256 38.8513C102.256 41.8969 104.37 44 107.447 44Z" fill="black"/>
<path d="M123.066 34.0244H120.403L118.054 38.1158H117.819L115.481 34.0244H112.807L116.678 40.6097V43.6782H119.195V40.6212L123.066 34.0244Z" fill="black"/>
<path d="M135.157 0H128.413V6.74053H135.157V0Z" fill="black"/>
<path d="M128.413 6.74053L121.67 6.74055V13.4811H128.413L128.413 6.74053Z" fill="black"/>
<path d="M145.272 3.37035H138.528V10.1109H145.272V3.37035Z" fill="black"/>
<path d="M145.272 10.1109H138.528V16.8514H145.272V10.1109Z" fill="black"/>
<path d="M138.528 3.37035H131.785V10.1109H138.528V3.37035Z" fill="black"/>
<path d="M141.9 20.2215H135.157V26.962H141.9V20.2215Z" fill="black"/>
<path d="M135.157 26.962L128.413 26.9621V33.7026H135.157L135.157 26.962Z" fill="black"/>
<path d="M128.413 23.5919H121.67V30.3324H128.413V23.5919Z" fill="black"/>
<path d="M148.643 13.481H141.9L141.9 20.2215L148.643 20.2215V13.481Z" fill="black"/>
<path d="M121.67 13.4811L114.926 13.481V20.2215H121.67L121.67 13.4811Z" fill="black"/>
<path d="M125.041 16.8513H118.298V23.5918H125.041V16.8513Z" fill="black"/>
</svg>
