<svg width="53" height="53" viewBox="0 0 53 53" fill="none" xmlns="http://www.w3.org/2000/svg">
<path fill-rule="evenodd" clip-rule="evenodd" d="M37.8024 0.493896H14.5026C6.59016 0.493896 0.152832 6.93153 0.152832 14.844V38.1438C0.152832 46.0566 6.59016 52.4939 14.5026 52.4939H37.8024C45.7155 52.4939 52.1528 46.0563 52.1528 38.1438V14.844C52.1531 6.93153 45.7155 0.493896 37.8024 0.493896ZM47.5395 38.1438C47.5395 43.5126 43.1715 47.8802 37.8027 47.8802H14.5026C9.13415 47.8805 4.76652 43.5126 4.76652 38.1438V14.844C4.76652 9.47552 9.13415 5.10759 14.5026 5.10759H37.8024C43.1712 5.10759 47.5391 9.47552 47.5391 14.844V38.1438H47.5395ZM26.1538 13.0954C18.7654 13.0954 12.7547 19.1061 12.7547 26.4945C12.7547 33.8825 18.7654 39.8929 26.1538 39.8929C33.5422 39.8929 39.5529 33.8825 39.5529 26.4945C39.5529 19.1061 33.5422 13.0954 26.1538 13.0954ZM26.1538 35.2789C21.3097 35.2789 17.3684 31.3382 17.3684 26.4942C17.3684 21.6498 21.3094 17.7088 26.1538 17.7088C30.9982 17.7088 34.9392 21.6498 34.9392 26.4942C34.9392 31.3382 30.9979 35.2789 26.1538 35.2789ZM37.7257 10.1737C38.3535 9.54318 39.2267 9.18331 40.1156 9.18331C41.0076 9.18331 41.8811 9.54318 42.5086 10.1737C43.1391 10.8012 43.499 11.6747 43.499 12.5667C43.499 13.4556 43.1391 14.3291 42.5086 14.9597C41.8781 15.5871 41.0076 15.9501 40.1156 15.9501C39.2267 15.9501 38.3532 15.5871 37.7257 14.9597C37.0952 14.3291 36.7323 13.4559 36.7323 12.5667C36.7323 11.6747 37.0949 10.8012 37.7257 10.1737Z" fill="black"/>
</svg>
