<svg width="22" height="18" viewBox="0 0 22 18" fill="none" xmlns="http://www.w3.org/2000/svg">
<path d="M-4.49604e-07 7.71425L-3.37204e-07 10.2857L2.51429 10.2857L2.51429 7.71425L-4.49604e-07 7.71425Z" fill="white"/>
<path d="M4.5048 10.2857L4.5048 7.71425L16.9714 7.71425L16.9714 10.2857L4.5048 10.2857Z" fill="white"/>
<path d="M11.9429 15.4286L11.9429 18L14.4572 18L14.4572 15.4286L16.9714 15.4286L16.9714 12.8572L14.4571 12.8572L14.4572 15.4286L11.9429 15.4286Z" fill="white"/>
<path d="M11.9429 -5.2204e-07L11.9429 2.57143L14.4571 2.57143L14.4571 5.14285L16.9714 5.14285L16.9714 2.57142L14.4571 2.57143L14.4572 -6.31943e-07L11.9429 -5.2204e-07Z" fill="white"/>
<path d="M16.9714 5.14285L16.9714 7.71425L16.9714 10.2857L19.4857 10.2857L22 10.2857L22 7.71425L19.4857 7.71425L19.4857 5.1429L16.9714 5.14285Z" fill="white"/>
<path d="M16.9714 10.2857L16.9714 12.8572L19.4857 12.8572L19.4857 10.2857L16.9714 10.2857Z" fill="white"/>
</svg>
